<mxfile host="65bd71144e">
    <diagram id="0fiBWgrXSbrucCPLC_0t" name="Page-1">
        <mxGraphModel dx="687" dy="609" grid="0" gridSize="10" guides="1" tooltips="1" connect="1" arrows="1" fold="1" page="1" pageScale="1" pageWidth="850" pageHeight="1100" background="#ffffff" math="0" shadow="1">
            <root>
                <mxCell id="0"/>
                <mxCell id="1" parent="0"/>
                <mxCell id="2" value="" style="edgeStyle=none;html=1;noEdgeStyle=1;orthogonal=1;" parent="1" source="7" target="8" edge="1">
                    <mxGeometry relative="1" as="geometry">
                        <Array as="points">
                            <mxPoint x="241" y="92"/>
                            <mxPoint x="32.5" y="168"/>
                        </Array>
                    </mxGeometry>
                </mxCell>
                <mxCell id="3" value="" style="edgeStyle=none;html=1;noEdgeStyle=1;orthogonal=1;" parent="1" source="7" target="8" edge="1">
                    <mxGeometry relative="1" as="geometry">
                        <Array as="points">
                            <mxPoint x="263" y="92"/>
                            <mxPoint x="87.5" y="168"/>
                        </Array>
                    </mxGeometry>
                </mxCell>
                <mxCell id="4" value="" style="edgeStyle=none;html=1;noEdgeStyle=1;orthogonal=1;" parent="1" source="7" target="9" edge="1">
                    <mxGeometry relative="1" as="geometry">
                        <Array as="points">
                            <mxPoint x="285" y="94"/>
                            <mxPoint x="210" y="168"/>
                        </Array>
                    </mxGeometry>
                </mxCell>
                <mxCell id="5" value="" style="edgeStyle=none;html=1;noEdgeStyle=1;orthogonal=1;" parent="1" source="7" target="10" edge="1">
                    <mxGeometry relative="1" as="geometry">
                        <Array as="points">
                            <mxPoint x="307" y="96"/>
                            <mxPoint x="360" y="168"/>
                        </Array>
                    </mxGeometry>
                </mxCell>
                <mxCell id="6" value="" style="edgeStyle=none;html=1;noEdgeStyle=1;orthogonal=1;" parent="1" source="7" target="11" edge="1">
                    <mxGeometry relative="1" as="geometry">
                        <Array as="points">
                            <mxPoint x="329" y="94"/>
                            <mxPoint x="510" y="168"/>
                        </Array>
                    </mxGeometry>
                </mxCell>
                <mxCell id="7" value="Market" style="ellipse;whiteSpace=wrap;html=1;sketch=1;rounded=1;" parent="1" vertex="1">
                    <mxGeometry x="225" width="120" height="80" as="geometry"/>
                </mxCell>
                <mxCell id="8" value="title" style="whiteSpace=wrap;html=1;sketch=1;rounded=1;" parent="1" vertex="1">
                    <mxGeometry y="180" width="120" height="60" as="geometry"/>
                </mxCell>
                <mxCell id="9" value="slug" style="whiteSpace=wrap;html=1;sketch=1;rounded=1;" parent="1" vertex="1">
                    <mxGeometry x="150" y="180" width="120" height="60" as="geometry"/>
                </mxCell>
                <mxCell id="10" value="description" style="whiteSpace=wrap;html=1;sketch=1;rounded=1;" parent="1" vertex="1">
                    <mxGeometry x="300" y="180" width="120" height="60" as="geometry"/>
                </mxCell>
                <mxCell id="11" value="title" style="whiteSpace=wrap;html=1;sketch=1;rounded=1;" parent="1" vertex="1">
                    <mxGeometry x="450" y="180" width="120" height="60" as="geometry"/>
                </mxCell>
            </root>
        </mxGraphModel>
    </diagram>
</mxfile>